<svg version="1.1" id="Layer_1" xmlns="http://www.w3.org/2000/svg" xmlns:xlink="http://www.w3.org/1999/xlink" x="0px" y="0px" viewBox="0 0 173.4 91.1" style="enable-background:new 0 0 173.4 91.1;" xml:space="preserve">
	<style type="text/css">
		.shape-eco {
			fill: url("#svggradient");
		}
	</style>
	<g>
		<g>
			<linearGradient id="svggradient" gradientUnits="userSpaceOnUse" x1="14.8916" y1="77.2566" x2="157.8481" y2="14.1261">
				<stop offset="0" style="stop-color:#8DC63F"/>
				<stop offset="0.5" style="stop-color:#15B89B"/>
				<stop offset="1" style="stop-color:#00AEEF"/>
			</linearGradient>
			<path
				class="shape-eco"
				d="M155.1,91.1h-34.4c-6.5,0-12.6-3.1-15.9-8.1l-9.4-14.4c-1.6-2.4-0.9-5.6,1.5-7.1c2.4-1.6,5.6-0.9,7.1,1.5
			l9.4,14.4c1.3,2.1,4.2,3.4,7.2,3.4h34.4c4.3,0,7.9-2.7,7.9-5.9V16.2c0-3.2-3.6-5.9-7.9-5.9h-34.4c-3,0-5.8,1.3-7.2,3.4L68.6,83
			c-3.2,5-9.3,8.1-15.9,8.1H18.3C8.2,91.1,0,83.8,0,74.9V16.2C0,7.3,8.2,0,18.3,0h34.4c6.5,0,12.6,3.1,15.9,8.1l9.4,14.4
			c1.6,2.4,0.9,5.6-1.5,7.1c-2.4,1.6-5.6,0.9-7.1-1.5l-9.4-14.4c-1.3-2.1-4.2-3.4-7.2-3.4H18.3c-4.3,0-7.9,2.7-7.9,5.9v58.7
			c0,3.2,3.6,5.9,7.9,5.9h34.4c3,0,5.8-1.3,7.2-3.4l44.9-69.3c3.2-5,9.3-8.1,15.9-8.1h34.4c10.1,0,18.3,7.3,18.3,16.2v58.7
			C173.4,83.8,165.2,91.1,155.1,91.1z"/>
		</g>
	</g>
</svg>
