<?xml version="1.0" encoding="utf-8"?>
<!-- Generator: Adobe Illustrator 25.4.1, SVG Export Plug-In . SVG Version: 6.00 Build 0)  -->
<svg version="1.1" id="Layer_1" focusable="false" xmlns="http://www.w3.org/2000/svg" xmlns:xlink="http://www.w3.org/1999/xlink"
	 x="0px" y="0px" viewBox="0 0 448 448" style="enable-background:new 0 0 448 448;" xml:space="preserve">
<style type="text/css">
	.st0{fill:#FFFFFF;}
</style>
<path class="st0" d="M432,348H16c-8.8,0-16,7.2-16,16v40c0,8.8,7.2,16,16,16h416c8.8,0,16-7.2,16-16v-40
	C448,355.2,440.8,348,432,348z M269.5,188H16c-8.8,0-16,7.2-16,16v40c0,8.8,7.2,16,16,16h253.5c8.8,0,16-7.2,16-16v-40
	C285.5,195.2,278.3,188,269.5,188z M432,28H16C7.2,28,0,35.2,0,44v40c0,8.8,7.2,16,16,16h416c8.8,0,16-7.2,16-16V44
	C448,35.2,440.8,28,432,28z"/>
<path class="st0" d="M350.3,300.9V151.8c0-10.3,12.5-15.5,19.8-8.2l74.5,74.5c4.5,4.5,4.5,11.9,0,16.4l-74.5,74.5
	C362.8,316.4,350.3,311.2,350.3,300.9z"/>
</svg>
