<?xml version="1.0" encoding="UTF-8" standalone="no"?>
<svg width="263px" height="80px" viewBox="0 0 263 80" version="1.1" xmlns="http://www.w3.org/2000/svg" xmlns:xlink="http://www.w3.org/1999/xlink">
    <!-- Generator: Sketch 3.7 (28169) - http://www.bohemiancoding.com/sketch -->
    <title>logo-white</title>
    <desc>Created with Sketch.</desc>
    <defs></defs>
    <g id="Page-1" stroke="none" stroke-width="1" fill="none" fill-rule="evenodd">
        <g id="logo-white" fill="#FFFFFF">
            <text id="legacy-cms" font-family="NexaBold, Nexa Bold" font-size="50" font-weight="bold">
                <tspan x="5.5" y="46">legacy cms</tspan>
            </text>
            <text id="by" font-family="Comfortaa-Regular, Comfortaa" font-size="12" font-weight="normal" letter-spacing="0.857142806">
                <tspan x="105.223214" y="71">by</tspan>
            </text>
            <g id="Group-Copy-5" transform="translate(125.000000, 59.000000)">
                <text id="interactive" font-family="Comfortaa-Bold, Comfortaa" font-size="13.3800001" font-weight="bold" letter-spacing="0.267599963">
                    <tspan x="58.97515" y="14.0833333">interactive</tspan>
                </text>
                <g id="Group" transform="translate(0.800000, 2.277778)">
                    <g id="Shape">
                        <g>
                            <path d="M5.72900664,0.054030139 C2.56908915,0.054030139 0.0074514917,2.70399963 0.0074514917,5.97318481 C0.0074514917,9.24223315 2.56908915,11.8920658 5.72900664,11.8920658 C6.69157182,11.8920658 7.59818468,11.6449269 8.39408335,11.2105864 C8.67305133,11.6510848 9.15373868,11.9425609 9.70082809,11.9425609 C10.5636579,11.9425609 11.2631281,11.2192075 11.2631281,10.3264422 C11.2631281,9.79398512 11.0132606,9.32338119 10.6296631,9.02903137 C11.1505621,8.13695024 11.4504295,7.09133098 11.4504295,5.97318481 C11.4502972,2.70399963 8.88879186,0.054030139 5.72900664,0.054030139 L5.72900664,0.054030139 Z M5.72900664,10.1978095 C3.50056971,10.1978095 1.69395775,8.32894131 1.69395775,6.02367997 C1.69395775,3.71814493 3.50056971,1.8492767 5.72900664,1.8492767 C7.9573113,1.8492767 9.76392326,3.71814493 9.76392326,6.02367997 C9.76379099,8.32894131 7.95717903,10.1978095 5.72900664,10.1978095 L5.72900664,10.1978095 Z"></path>
                            <path d="M34.2695867,0.104388454 C31.1096692,0.104388454 28.5481638,2.75435794 28.5481638,6.02354312 C28.5481638,9.29259146 31.1096692,11.9424241 34.2695867,11.9424241 C37.4295042,11.9424241 39.9911418,9.29245462 39.9911418,6.02354312 C39.9911418,2.75435794 37.4295042,0.104388454 34.2695867,0.104388454 L34.2695867,0.104388454 Z M34.2694544,10.1473144 C32.0410175,10.1473144 30.2345378,8.27844616 30.2345378,5.97318481 C30.2345378,3.66764978 32.0410175,1.79878154 34.2694544,1.79878154 C36.4978914,1.79878154 38.3045033,3.66764978 38.3045033,5.97318481 C38.3045033,8.278583 36.4978914,10.1473144 34.2694544,10.1473144 L34.2694544,10.1473144 Z"></path>
                            <path d="M13.6163004,0.0538932957 C13.1506924,0.0538932957 12.7734441,0.444307081 12.7734441,0.925995312 L12.7730472,0.925995312 L12.7730472,11.0199638 L12.7734441,11.0199638 L12.7734441,11.0201006 C12.7734441,11.5017888 13.1508247,11.8920658 13.6163004,11.8920658 C14.0817761,11.8920658 14.459289,11.501652 14.459289,11.0201006 L14.459289,11.0199638 L14.4595535,11.0199638 L14.4595535,0.925995312 L14.459289,0.925995312 C14.459289,0.444307081 14.0819084,0.0538932957 13.6163004,0.0538932957 L13.6163004,0.0538932957 Z"></path>
                            <path d="M52.5017114,10.4263378 L52.504886,10.4230535 L48.2166628,5.98686913 L52.4540924,1.6030957 C52.6420552,1.44326279 52.7620286,1.20077655 52.7620286,0.92927955 C52.7620286,0.447454475 52.3845158,0.0571775337 51.9191723,0.0571775337 C51.6904688,0.0571775337 51.4833262,0.151599374 51.3316067,0.304726968 L51.327903,0.300895357 L47.0242036,4.75309041 L42.7722237,0.354264224 L42.76852,0.358095835 C42.6168006,0.205105084 42.409658,0.1105464 42.1809545,0.1105464 C41.7154788,0.1105464 41.3380982,0.500960185 41.3380982,0.982648416 C41.3380982,1.25414542 41.4580716,1.49663165 41.6460344,1.65646457 L45.8317445,5.98673229 L41.5953731,10.369411 L41.5985477,10.3726952 C41.4293679,10.5321176 41.3224897,10.76133 41.3224897,11.0168164 C41.3224897,11.4985046 41.6998703,11.8887816 42.1654783,11.8887816 C42.4137585,11.8887816 42.6363773,11.7769806 42.79061,11.600316 L47.0243359,7.22051101 L51.3096491,11.6538217 C51.464014,11.83076 51.6866328,11.9424241 51.934913,11.9424241 C52.4006533,11.9424241 52.7779016,11.5520103 52.7779016,11.0704589 C52.7777693,10.8149726 52.6708911,10.5857602 52.5017114,10.4263378 L52.5017114,10.4263378 Z"></path>
                            <path d="M21.5038587,0.054030139 C18.3439412,0.054030139 15.7823035,2.70399963 15.7823035,5.97318481 L15.7823035,11.0311849 C15.7823035,11.4670307 16.0915625,11.8269284 16.4951335,11.8920658 C16.537726,11.898908 16.5811122,11.9035606 16.6255566,11.9035606 C16.670001,11.9035606 16.7133872,11.898908 16.7559798,11.8920658 C17.1595508,11.8269284 17.4688098,11.4670307 17.4688098,11.0311849 L17.4688098,10.1689356 L17.4688098,5.97304797 L17.468942,5.97304797 C17.468942,3.66751293 19.2754217,1.7986447 21.5038587,1.7986447 C23.7322956,1.7986447 25.5389076,3.66751293 25.5389076,5.97304797 L25.5389076,10.1689356 L25.5389076,11.0311849 C25.5389076,11.4670307 25.8481665,11.8269284 26.2517375,11.8920658 L26.3792506,11.8920658 C26.3801766,11.8920658 26.3809702,11.8922026 26.3818961,11.8922026 C26.3828221,11.8922026 26.3836157,11.8920658 26.3845416,11.8920658 L26.5128484,11.8920658 C26.9164194,11.8269284 27.2256784,11.4670307 27.2256784,11.0311849 L27.2256784,5.97318481 C27.2254138,2.70399963 24.6637762,0.054030139 21.5038587,0.054030139 L21.5038587,0.054030139 Z"></path>
                        </g>
                    </g>
                </g>
            </g>
        </g>
    </g>
</svg>