<?xml version="1.0" encoding="utf-8"?>
<!-- Generator: Adobe Illustrator 26.5.0, SVG Export Plug-In . SVG Version: 6.00 Build 0)  -->
<svg version="1.1" id="Layer_1" xmlns="http://www.w3.org/2000/svg" xmlns:xlink="http://www.w3.org/1999/xlink" x="0px" y="0px"
	 viewBox="0 0 89 90.1" style="enable-background:new 0 0 89 90.1;" xml:space="preserve">
<style type="text/css">
	.st0{fill:#11A2F4;}
</style>
<g>
	<path class="st0" d="M85.2,9.7H27.9c-1.9,0-3.5,1.6-3.5,3.5s1.6,3.5,3.5,3.5h53.8V42l-51.8,7.5l-13.3-42c-1-4.3-5.1-7.3-9.7-7.3h-3
		C2,0.2,0.4,1.7,0.4,3.7S2,7.2,3.9,7.2h3c1.4,0,2.7,0.9,3,2c0,0.1,0,0.2,0.1,0.3l13,41.1l-3.8,0.6h-0.1c-5.7,1-9.4,4.8-9.4,9.8
		c0,5.4,4.4,9.9,9.9,9.9h56c1.9,0,3.5-1.6,3.5-3.5s-1.6-3.5-3.5-3.5h-56c-1.6,0-2.9-1.3-2.9-2.9c0-2.1,2.6-2.7,3.4-2.9l65.5-9.5
		c1.7-0.3,3-1.7,3-3.5V13.2C88.7,11.3,87.1,9.7,85.2,9.7z"/>
	<path class="st0" d="M27.9,76.6c-3.7,0-6.7,3-6.7,6.7s3,6.7,6.7,6.7s6.7-3,6.7-6.7S31.6,76.6,27.9,76.6z"/>
	<path class="st0" d="M69.3,76.6c-3.7,0-6.7,3-6.7,6.7s3,6.7,6.7,6.7s6.7-3,6.7-6.7S73,76.6,69.3,76.6z"/>
</g>
</svg>
