<?xml version="1.0" encoding="utf-8"?>
<!-- Generator: Adobe Illustrator 25.3.1, SVG Export Plug-In . SVG Version: 6.00 Build 0)  -->
<svg version="1.1" id="Layer_1" xmlns="http://www.w3.org/2000/svg" xmlns:xlink="http://www.w3.org/1999/xlink" x="0px" y="0px"
	 viewBox="0 0 89 90.12" style="enable-background:new 0 0 89 90.12;" xml:space="preserve">
<style type="text/css">
	.st0{fill:#11A2F4;}
</style>
<g>
	<path class="st0" d="M44.7,90.03L44.7,90.03c-1.6,0-2.8-1.3-2.8-2.8v-47.9c0-1.6,1.3-2.8,2.8-2.8l0,0c1.6,0,2.8,1.3,2.8,2.8v47.8
		C47.5,88.73,46.2,90.03,44.7,90.03z"/>
	<path class="st0" d="M86.2,71.83L86.2,71.83c-1.6,0-2.8-1.3-2.8-2.8v-47.9c0-1.6,1.3-2.8,2.8-2.8l0,0c1.6,0,2.8,1.3,2.8,2.8v47.8
		C89,70.53,87.7,71.83,86.2,71.83z"/>
	<path class="st0" d="M88.7,68.03L88.7,68.03c0.7,1.4,0.1,3.1-1.4,3.8l-41.5,18c-1.4,0.7-3.1,0.1-3.8-1.4l0,0
		c-0.7-1.4-0.1-3.1,1.4-3.8l41.5-18C86.4,66.03,88.1,66.63,88.7,68.03z"/>
	<path class="st0" d="M88.7,19.93L88.7,19.93c0.7,1.4,0.1,3.1-1.4,3.8l-41.5,18c-1.4,0.7-3.1,0.1-3.8-1.4l0,0
		c-0.7-1.4-0.1-3.1,1.4-3.8l41.5-18C86.4,17.93,88.1,18.53,88.7,19.93z"/>
	<path class="st0" d="M2.8,71.83L2.8,71.83c1.6,0,2.8-1.3,2.8-2.8v-47.9c0-1.6-1.3-2.8-2.8-2.8l0,0c-1.6,0-2.8,1.3-2.8,2.8v47.8
		C0,70.53,1.3,71.83,2.8,71.83z"/>
	<path class="st0" d="M0.3,68.03L0.3,68.03c-0.7,1.4-0.1,3.1,1.4,3.8l41.5,18c1.4,0.7,3.1,0.1,3.8-1.4l0,0c0.7-1.4,0.1-3.1-1.4-3.8
		L4,66.63C2.6,66.03,0.9,66.63,0.3,68.03z"/>
	<path class="st0" d="M0.3,19.93L0.3,19.93c-0.7,1.4-0.1,3.1,1.4,3.8l41.5,18c1.4,0.7,3.1,0.1,3.8-1.4l0,0c0.7-1.4,0.1-3.1-1.4-3.8
		L4,18.53C2.6,17.93,0.9,18.53,0.3,19.93z"/>
	<path class="st0" d="M42.1,1.63L42.1,1.63c-0.7,1.4-0.1,3.1,1.4,3.8l23,9.9c1.4,0.7,3.1,0.1,3.8-1.4l0,0c0.7-1.4,0.1-3.1-1.4-3.8
		l-23-9.8C44.5-0.37,42.8,0.23,42.1,1.63z"/>
	<path class="st0" d="M46.9,1.63L46.9,1.63c0.7,1.4,0.1,3.1-1.4,3.8L4,23.43c-1.4,0.6-3.1,0-3.7-1.4l0,0c-0.7-1.4-0.1-3.1,1.4-3.8
		l41.5-18C44.5-0.37,46.2,0.23,46.9,1.63z"/>
</g>
</svg>
