<?xml version="1.0" encoding="utf-8"?>
<!-- Generator: Adobe Illustrator 26.5.0, SVG Export Plug-In . SVG Version: 6.00 Build 0)  -->
<svg version="1.1" id="Layer_1" xmlns="http://www.w3.org/2000/svg" xmlns:xlink="http://www.w3.org/1999/xlink" x="0px" y="0px"
	 viewBox="0 0 346.8 90.1" style="enable-background:new 0 0 346.8 90.1;" xml:space="preserve">
<style type="text/css">
	.st0{enable-background:new    ;}
	.st1{fill:#222222;}
	.st2{fill:#11A2F4;}
</style>
<g>
	<g class="st0">
		<path class="st1" d="M122.4,48.6c-0.4,0-0.7-0.1-1-0.4c-0.3-0.3-0.4-0.6-0.4-0.9v-35c0-0.4,0.1-0.7,0.4-1c0.3-0.2,0.6-0.4,1-0.4
			h25.1c0.4,0,0.7,0.1,1,0.4c0.3,0.3,0.4,0.6,0.4,1v5.1c0,0.4-0.1,0.7-0.4,1c-0.3,0.3-0.6,0.4-1,0.4h-17.2v7.3h16
			c0.4,0,0.7,0.1,1,0.4c0.3,0.3,0.4,0.6,0.4,1V32c0,0.4-0.1,0.7-0.4,0.9c-0.3,0.3-0.6,0.4-1,0.4h-16v7.5H148c0.4,0,0.7,0.1,1,0.4
			c0.3,0.3,0.4,0.6,0.4,1v5.1c0,0.4-0.1,0.7-0.4,0.9c-0.3,0.3-0.6,0.4-1,0.4H122.4z"/>
		<path class="st1" d="M160.3,48.6c-0.3,0-0.5-0.1-0.8-0.3c-0.2-0.2-0.3-0.5-0.3-0.8c0-0.2,0-0.3,0.1-0.5l12.6-34.5
			c0.1-0.4,0.3-0.7,0.7-1c0.3-0.3,0.8-0.5,1.4-0.5h8c0.6,0,1.1,0.2,1.4,0.5c0.3,0.3,0.6,0.7,0.7,1L196.6,47c0.1,0.1,0.1,0.3,0.1,0.5
			c0,0.3-0.1,0.5-0.3,0.8c-0.2,0.2-0.5,0.3-0.8,0.3h-6.6c-0.5,0-0.9-0.1-1.2-0.4c-0.3-0.3-0.4-0.5-0.5-0.7l-2.1-5.5h-14.4l-2,5.5
			c-0.1,0.2-0.2,0.5-0.5,0.7c-0.3,0.3-0.7,0.4-1.3,0.4H160.3z M173,34.2h10L178,20L173,34.2z"/>
		<path class="st1" d="M221.4,49.1c-3.6,0-6.6-0.5-8.9-1.5s-4.2-2.4-5.4-4c-1.2-1.6-1.9-3.4-1.9-5.3c0-0.3,0.1-0.5,0.3-0.8
			c0.2-0.2,0.5-0.3,0.8-0.3h6.8c0.5,0,0.9,0.1,1.2,0.3c0.3,0.2,0.5,0.4,0.7,0.7c0.3,0.5,0.7,1.1,1.2,1.6c0.5,0.5,1.2,0.9,2.1,1.2
			c0.9,0.3,1.9,0.5,3.1,0.5c2.1,0,3.6-0.3,4.7-1c1.1-0.6,1.6-1.5,1.6-2.6c0-0.8-0.3-1.5-0.9-2c-0.6-0.5-1.5-1-2.8-1.4
			s-3-0.8-5.1-1.3c-2.7-0.6-5-1.3-7-2.2c-1.9-0.9-3.4-2.1-4.4-3.6c-1-1.5-1.5-3.3-1.5-5.6c0-2.2,0.6-4.1,1.9-5.9s3-3.1,5.2-4
			c2.2-1,4.9-1.5,7.9-1.5c2.5,0,4.7,0.3,6.5,1c1.9,0.6,3.5,1.5,4.8,2.6s2.3,2.2,2.9,3.4c0.7,1.2,1,2.4,1,3.5c0,0.3-0.1,0.5-0.3,0.8
			s-0.5,0.3-0.8,0.3h-7.1c-0.4,0-0.7-0.1-1-0.2c-0.3-0.1-0.5-0.4-0.8-0.7c-0.2-0.8-0.8-1.5-1.7-2.1c-0.9-0.6-2.1-0.9-3.6-0.9
			c-1.6,0-2.8,0.3-3.7,0.8c-0.9,0.6-1.3,1.4-1.3,2.6c0,0.7,0.2,1.3,0.7,1.9s1.3,1,2.4,1.4s2.7,0.8,4.7,1.2c3.3,0.6,5.9,1.4,7.9,2.3
			c2,0.9,3.5,2.1,4.4,3.6c1,1.5,1.4,3.3,1.4,5.5c0,2.4-0.7,4.5-2.1,6.3c-1.4,1.8-3.3,3.1-5.7,4.1C227.4,48.7,224.6,49.1,221.4,49.1z
			"/>
		<path class="st1" d="M251.4,48.6c-0.4,0-0.7-0.1-1-0.4c-0.3-0.3-0.4-0.6-0.4-0.9v-35c0-0.4,0.1-0.7,0.4-1c0.3-0.2,0.6-0.4,1-0.4
			h7.2c0.4,0,0.7,0.1,1,0.4c0.3,0.3,0.4,0.6,0.4,1v35c0,0.4-0.1,0.7-0.4,0.9c-0.3,0.3-0.6,0.4-1,0.4H251.4z"/>
		<path class="st1" d="M275.8,48.6c-0.4,0-0.7-0.1-1-0.4c-0.3-0.3-0.4-0.6-0.4-0.9v-35c0-0.4,0.1-0.7,0.4-1c0.2-0.2,0.6-0.4,1-0.4
			h24.8c0.4,0,0.7,0.1,1,0.4c0.3,0.3,0.4,0.6,0.4,1v5.4c0,0.4-0.1,0.7-0.4,1s-0.6,0.4-1,0.4H284V27h15.5c0.4,0,0.7,0.1,1,0.4
			c0.3,0.3,0.4,0.6,0.4,1v5.4c0,0.4-0.1,0.7-0.4,0.9c-0.3,0.3-0.6,0.4-1,0.4H284v12.2c0,0.4-0.1,0.7-0.4,0.9c-0.3,0.3-0.6,0.4-1,0.4
			H275.8z"/>
		<path class="st1" d="M325.8,48.6c-0.4,0-0.7-0.1-0.9-0.4c-0.3-0.3-0.4-0.6-0.4-0.9V35.7l-12.5-23c0-0.1-0.1-0.2-0.1-0.3
			c0-0.1-0.1-0.2-0.1-0.3c0-0.3,0.1-0.5,0.3-0.8c0.2-0.2,0.5-0.3,0.8-0.3h6.7c0.5,0,1,0.1,1.3,0.4c0.3,0.3,0.5,0.5,0.6,0.7l7.7,13.9
			l7.7-13.9c0.1-0.2,0.3-0.5,0.6-0.7c0.3-0.3,0.7-0.4,1.3-0.4h6.7c0.3,0,0.6,0.1,0.8,0.3c0.2,0.2,0.3,0.5,0.3,0.8c0,0.1,0,0.2,0,0.3
			c0,0.1,0,0.2-0.1,0.3l-12.5,23v11.6c0,0.4-0.1,0.7-0.4,0.9c-0.3,0.3-0.6,0.4-1,0.4H325.8z"/>
	</g>
	<g class="st0">
		<path class="st1" d="M117.8,78.4c-0.1-0.1-0.1-0.2-0.1-0.4l0-0.2l6-16.1c0.2-0.4,0.5-0.6,0.9-0.6h2.8c0.4,0,0.7,0.2,0.9,0.6
			l6,16.1l0,0.2c0,0.2-0.1,0.3-0.2,0.4c-0.1,0.1-0.2,0.2-0.4,0.2h-2.2c-0.4,0-0.6-0.2-0.7-0.5l-1.1-3h-7.4l-1.1,3
			c-0.1,0.3-0.4,0.5-0.7,0.5h-2.2C118.1,78.6,117.9,78.6,117.8,78.4z M123.2,72.2h5.6l-2.8-7.7L123.2,72.2z"/>
		<path class="st1" d="M143.9,78.2c-1.1-0.5-1.9-1-2.4-1.8c-0.5-0.7-0.8-1.5-0.9-2.4c0-0.1,0.1-0.3,0.1-0.4c0.1-0.1,0.2-0.2,0.4-0.2
			h2.3c0.2,0,0.3,0,0.4,0.1c0.1,0.1,0.2,0.2,0.3,0.3c0.2,0.6,0.5,1,1.1,1.4c0.6,0.4,1.4,0.6,2.4,0.6c1.2,0,2-0.2,2.6-0.6
			c0.6-0.4,0.9-0.9,0.9-1.6c0-0.5-0.2-0.8-0.5-1.1c-0.3-0.3-0.8-0.6-1.4-0.8c-0.6-0.2-1.5-0.5-2.7-0.8c-2-0.5-3.4-1.1-4.3-1.8
			c-0.9-0.8-1.4-1.9-1.4-3.3c0-1,0.3-1.8,0.8-2.6c0.5-0.8,1.3-1.4,2.3-1.8c1-0.4,2.1-0.7,3.5-0.7c1.4,0,2.6,0.2,3.6,0.7
			c1,0.5,1.8,1.1,2.3,1.8c0.5,0.7,0.8,1.4,0.8,2.2c0,0.1,0,0.3-0.1,0.4s-0.2,0.2-0.4,0.2h-2.4c-0.4,0-0.6-0.1-0.8-0.4
			c-0.1-0.5-0.4-1-1-1.3c-0.6-0.4-1.3-0.5-2.1-0.5c-0.9,0-1.6,0.2-2.2,0.5c-0.5,0.4-0.8,0.9-0.8,1.5c0,0.5,0.1,0.8,0.4,1.1
			c0.3,0.3,0.7,0.6,1.2,0.8c0.6,0.2,1.4,0.5,2.5,0.8c1.5,0.3,2.7,0.7,3.5,1.1c0.9,0.4,1.5,0.9,1.9,1.6s0.6,1.4,0.6,2.4
			c0,1.1-0.3,2-0.9,2.8c-0.6,0.8-1.4,1.4-2.5,1.8c-1.1,0.4-2.3,0.6-3.7,0.6C146.3,78.9,145,78.6,143.9,78.2z"/>
		<path class="st1" d="M159.4,83.2c-0.1-0.1-0.2-0.2-0.2-0.3c0-0.1,0-0.2,0.1-0.4l2-4.6l-4.8-11.3c-0.1-0.2-0.1-0.3-0.1-0.4
			c0-0.1,0.1-0.3,0.2-0.4c0.1-0.1,0.2-0.2,0.4-0.2h2.1c0.3,0,0.5,0.2,0.6,0.5l3.3,8.2l3.4-8.2c0.2-0.3,0.4-0.5,0.7-0.5h2
			c0.1,0,0.3,0,0.4,0.2c0.1,0.1,0.1,0.2,0.1,0.3c0,0.1,0,0.2-0.1,0.4l-7.1,16.4c-0.1,0.3-0.4,0.5-0.7,0.5h-2
			C159.6,83.4,159.5,83.3,159.4,83.2z"/>
		<path class="st1" d="M172,78.4c-0.1-0.1-0.2-0.3-0.2-0.4V66.2c0-0.2,0.1-0.3,0.2-0.4c0.1-0.1,0.3-0.2,0.4-0.2h2
			c0.2,0,0.3,0.1,0.4,0.2c0.1,0.1,0.2,0.3,0.2,0.4v0.9c0.9-1.1,2.1-1.7,3.6-1.7c1.8,0,3.1,0.7,3.9,2.2c0.4-0.7,1-1.2,1.7-1.6
			c0.7-0.4,1.5-0.6,2.4-0.6c1.4,0,2.5,0.5,3.3,1.4s1.3,2.3,1.3,4.1V78c0,0.2-0.1,0.3-0.2,0.4s-0.3,0.2-0.4,0.2h-2.1
			c-0.2,0-0.3-0.1-0.4-0.2c-0.1-0.1-0.2-0.3-0.2-0.4v-7c0-1-0.2-1.8-0.7-2.3s-1-0.7-1.7-0.7c-0.6,0-1.2,0.2-1.7,0.7
			c-0.5,0.5-0.7,1.2-0.7,2.3v7c0,0.2-0.1,0.3-0.2,0.4s-0.3,0.2-0.4,0.2h-2.1c-0.2,0-0.3-0.1-0.4-0.2c-0.1-0.1-0.2-0.3-0.2-0.4v-7
			c0-1-0.2-1.8-0.7-2.3c-0.4-0.5-1-0.7-1.7-0.7c-0.7,0-1.2,0.2-1.7,0.7c-0.5,0.5-0.7,1.2-0.7,2.3v7c0,0.2-0.1,0.3-0.2,0.4
			s-0.3,0.2-0.4,0.2h-2.1C172.2,78.6,172.1,78.5,172,78.4z"/>
		<path class="st1" d="M195.8,78.4c-0.1-0.1-0.2-0.3-0.2-0.4v-9.7h-2c-0.2,0-0.3-0.1-0.4-0.2c-0.1-0.1-0.2-0.3-0.2-0.4v-1.5
			c0-0.2,0.1-0.3,0.2-0.4c0.1-0.1,0.3-0.2,0.4-0.2h2v-1c0-1.5,0.4-2.6,1.2-3.4c0.8-0.7,2.1-1.1,3.7-1.1h1.7c0.2,0,0.3,0.1,0.4,0.2
			c0.1,0.1,0.2,0.3,0.2,0.4v1.5c0,0.2-0.1,0.3-0.2,0.4c-0.1,0.1-0.3,0.2-0.4,0.2h-1.6c-0.6,0-1.1,0.2-1.4,0.5s-0.4,0.8-0.4,1.5v0.9
			h3.1c0.2,0,0.3,0.1,0.4,0.2c0.1,0.1,0.2,0.3,0.2,0.4v1.5c0,0.2-0.1,0.3-0.2,0.4c-0.1,0.1-0.3,0.2-0.4,0.2h-3.1V78
			c0,0.2-0.1,0.3-0.2,0.4s-0.3,0.2-0.4,0.2h-2.1C196,78.6,195.9,78.5,195.8,78.4z"/>
		<path class="st1" d="M205.6,77.4c-1.1-1-1.6-2.4-1.7-4.2l0-1.1l0-1.1c0.1-1.8,0.7-3.1,1.8-4.1c1.1-1,2.6-1.5,4.5-1.5
			c1.9,0,3.4,0.5,4.5,1.5c1.1,1,1.7,2.4,1.8,4.1c0,0.2,0,0.6,0,1.1s0,0.9,0,1.1c-0.1,1.8-0.7,3.2-1.7,4.2s-2.6,1.5-4.5,1.5
			C208.2,78.9,206.6,78.4,205.6,77.4z M212.2,75.5c0.5-0.6,0.7-1.4,0.8-2.4c0-0.2,0-0.5,0-1s0-0.8,0-1c0-1.1-0.3-1.9-0.8-2.4
			s-1.2-0.8-2-0.8c-0.9,0-1.6,0.3-2,0.8s-0.7,1.4-0.8,2.4l0,1l0,1c0,1.1,0.3,1.9,0.8,2.4c0.5,0.5,1.2,0.8,2,0.8
			C211,76.3,211.7,76.1,212.2,75.5z"/>
		<path class="st1" d="M219.4,78.4c-0.1-0.1-0.2-0.3-0.2-0.4V66.2c0-0.2,0.1-0.3,0.2-0.4c0.1-0.1,0.3-0.2,0.4-0.2h2.1
			c0.2,0,0.3,0.1,0.4,0.2c0.1,0.1,0.2,0.3,0.2,0.4v1c1-1.2,2.4-1.9,4.2-1.9c1.5,0,2.8,0.5,3.7,1.5c0.9,1,1.3,2.4,1.3,4.1v7
			c0,0.2-0.1,0.3-0.2,0.4s-0.3,0.2-0.4,0.2h-2.2c-0.2,0-0.3-0.1-0.4-0.2c-0.1-0.1-0.2-0.3-0.2-0.4v-6.9c0-1-0.2-1.7-0.7-2.3
			c-0.5-0.5-1.2-0.8-2-0.8c-0.8,0-1.5,0.3-2,0.8c-0.5,0.5-0.8,1.3-0.8,2.2V78c0,0.2-0.1,0.3-0.2,0.4s-0.3,0.2-0.4,0.2h-2.2
			C219.6,78.6,219.5,78.5,219.4,78.4z"/>
		<path class="st1" d="M236.3,83.2c-0.1-0.1-0.2-0.2-0.2-0.3c0-0.1,0-0.2,0.1-0.4l2-4.6l-4.8-11.3c-0.1-0.2-0.1-0.3-0.1-0.4
			c0-0.1,0.1-0.3,0.2-0.4c0.1-0.1,0.2-0.2,0.4-0.2h2.1c0.3,0,0.5,0.2,0.6,0.5l3.3,8.2l3.4-8.2c0.2-0.3,0.4-0.5,0.7-0.5h2
			c0.1,0,0.3,0,0.4,0.2c0.1,0.1,0.1,0.2,0.1,0.3c0,0.1,0,0.2-0.1,0.4l-7.1,16.4c-0.1,0.3-0.4,0.5-0.7,0.5h-2
			C236.6,83.4,236.5,83.3,236.3,83.2z"/>
		<path class="st1" d="M255.5,77.1c-1.3-1.2-1.9-2.8-2-5c0-0.4,0-1.2,0-2.2c0-1,0-1.8,0-2.2c0.1-2.1,0.8-3.8,2-5
			c1.3-1.2,3-1.8,5.3-1.8c1.5,0,2.8,0.3,3.9,0.8s2,1.2,2.6,2.1c0.6,0.9,0.9,1.9,1,3v0c0,0.1-0.1,0.2-0.2,0.3s-0.2,0.1-0.4,0.1h-2.4
			c-0.2,0-0.4,0-0.5-0.1s-0.2-0.3-0.2-0.5c-0.2-1-0.7-1.8-1.3-2.2c-0.6-0.4-1.4-0.6-2.5-0.6c-2.4,0-3.6,1.3-3.7,4c0,0.4,0,1.1,0,2.1
			c0,0.9,0,1.6,0,2.1c0.1,2.7,1.3,4,3.7,4c1,0,1.8-0.2,2.4-0.6c0.6-0.4,1.1-1.2,1.3-2.2c0.1-0.2,0.2-0.4,0.2-0.5
			c0.1-0.1,0.2-0.1,0.5-0.1h2.4c0.2,0,0.3,0,0.4,0.1c0.1,0.1,0.2,0.2,0.1,0.4c0,1.1-0.4,2.1-1,3c-0.6,0.9-1.5,1.6-2.6,2.1
			c-1.1,0.5-2.4,0.8-3.9,0.8C258.5,78.9,256.8,78.3,255.5,77.1z"/>
		<path class="st1" d="M271.4,78.4c-0.1-0.1-0.2-0.3-0.2-0.4V61.7c0-0.2,0.1-0.3,0.2-0.5c0.1-0.1,0.3-0.2,0.4-0.2h2
			c0.3,0,0.6,0.2,0.8,0.5l4.8,9l4.8-9c0.2-0.3,0.4-0.5,0.8-0.5h2c0.2,0,0.3,0.1,0.4,0.2c0.1,0.1,0.2,0.3,0.2,0.5V78
			c0,0.2-0.1,0.3-0.2,0.4c-0.1,0.1-0.3,0.2-0.4,0.2h-2.2c-0.2,0-0.3-0.1-0.4-0.2c-0.1-0.1-0.2-0.3-0.2-0.4V67.3l-3.5,6.6
			c-0.2,0.4-0.5,0.5-0.8,0.5h-1c-0.3,0-0.6-0.2-0.8-0.5l-3.5-6.6V78c0,0.2-0.1,0.3-0.2,0.4s-0.3,0.2-0.4,0.2h-2.2
			C271.6,78.6,271.5,78.5,271.4,78.4z"/>
		<path class="st1" d="M293.8,78.2c-1.1-0.5-1.9-1-2.4-1.8s-0.8-1.5-0.9-2.4c0-0.1,0-0.3,0.1-0.4c0.1-0.1,0.2-0.2,0.4-0.2h2.3
			c0.2,0,0.3,0,0.5,0.1c0.1,0.1,0.2,0.2,0.3,0.3c0.2,0.6,0.5,1,1.1,1.4c0.6,0.4,1.4,0.6,2.4,0.6c1.2,0,2-0.2,2.6-0.6
			s0.9-0.9,0.9-1.6c0-0.5-0.2-0.8-0.5-1.1c-0.3-0.3-0.8-0.6-1.4-0.8c-0.6-0.2-1.5-0.5-2.7-0.8c-2-0.5-3.4-1.1-4.3-1.8
			c-0.9-0.8-1.4-1.9-1.4-3.3c0-1,0.3-1.8,0.8-2.6c0.5-0.8,1.3-1.4,2.3-1.8s2.1-0.7,3.5-0.7c1.4,0,2.6,0.2,3.6,0.7
			c1,0.5,1.8,1.1,2.3,1.8c0.5,0.7,0.8,1.4,0.8,2.2c0,0.1,0,0.3-0.1,0.4c-0.1,0.1-0.2,0.2-0.4,0.2h-2.4c-0.4,0-0.6-0.1-0.8-0.4
			c-0.1-0.5-0.4-1-1-1.3s-1.3-0.5-2.1-0.5c-0.9,0-1.6,0.2-2.2,0.5c-0.5,0.4-0.8,0.9-0.8,1.5c0,0.5,0.1,0.8,0.4,1.1
			c0.3,0.3,0.7,0.6,1.2,0.8c0.6,0.2,1.4,0.5,2.5,0.8c1.5,0.3,2.7,0.7,3.5,1.1c0.9,0.4,1.5,0.9,1.9,1.6c0.4,0.6,0.6,1.4,0.6,2.4
			c0,1.1-0.3,2-0.9,2.8c-0.6,0.8-1.4,1.4-2.5,1.8c-1.1,0.4-2.3,0.6-3.7,0.6C296.1,78.9,294.8,78.6,293.8,78.2z"/>
	</g>
	<g>
		<g>
			<path class="st2" d="M44.7,90L44.7,90c-1.6,0-2.8-1.3-2.8-2.8V39.3c0-1.6,1.3-2.8,2.8-2.8l0,0c1.6,0,2.8,1.3,2.8,2.8v47.8
				C47.5,88.7,46.2,90,44.7,90z"/>
		</g>
		<g>
			<path class="st2" d="M86.2,71.8L86.2,71.8c-1.6,0-2.8-1.3-2.8-2.8V21.1c0-1.6,1.3-2.8,2.8-2.8l0,0c1.6,0,2.8,1.3,2.8,2.8v47.8
				C89,70.5,87.7,71.8,86.2,71.8z"/>
		</g>
		<g>
			<path class="st2" d="M88.7,68L88.7,68c0.7,1.4,0.1,3.1-1.4,3.8l-41.5,18c-1.4,0.7-3.1,0.1-3.8-1.4l0,0c-0.7-1.4-0.1-3.1,1.4-3.8
				l41.5-18C86.4,66,88.1,66.6,88.7,68z"/>
		</g>
		<g>
			<path class="st2" d="M88.7,19.9L88.7,19.9c0.7,1.4,0.1,3.1-1.4,3.8l-41.5,18c-1.4,0.7-3.1,0.1-3.8-1.4l0,0
				c-0.7-1.4-0.1-3.1,1.4-3.8l41.5-18C86.4,17.9,88.1,18.5,88.7,19.9z"/>
		</g>
		<g>
			<path class="st2" d="M2.8,71.8L2.8,71.8c1.6,0,2.8-1.3,2.8-2.8V21.1c0-1.6-1.3-2.8-2.8-2.8l0,0c-1.6,0-2.8,1.3-2.8,2.8v47.8
				C0,70.5,1.3,71.8,2.8,71.8z"/>
		</g>
		<g>
			<path class="st2" d="M0.3,68L0.3,68c-0.7,1.4-0.1,3.1,1.4,3.8l41.5,18c1.4,0.7,3.1,0.1,3.8-1.4l0,0c0.7-1.4,0.1-3.1-1.4-3.8
				L4,66.6C2.6,66,0.9,66.6,0.3,68z"/>
		</g>
		<g>
			<path class="st2" d="M0.3,19.9L0.3,19.9c-0.7,1.4-0.1,3.1,1.4,3.8l41.5,18c1.4,0.7,3.1,0.1,3.8-1.4l0,0c0.7-1.4,0.1-3.1-1.4-3.8
				L4,18.5C2.6,17.9,0.9,18.5,0.3,19.9z"/>
		</g>
		<g>
			<path class="st2" d="M42.1,1.6L42.1,1.6C41.4,3,42,4.7,43.5,5.4L72.6,18c1.4,0.7,3.1,0.1,3.8-1.4l0,0c0.7-1.4,0.1-3.1-1.4-3.8
				L45.9,0.3C44.5-0.4,42.8,0.2,42.1,1.6z"/>
		</g>
		<g>
			<path class="st2" d="M46.9,1.6L46.9,1.6C47.6,3,47,4.7,45.5,5.4L4,23.4c-1.4,0.6-3.1,0-3.7-1.4l0,0c-0.7-1.4-0.1-3.1,1.4-3.8
				l41.5-18C44.5-0.4,46.2,0.2,46.9,1.6z"/>
		</g>
	</g>
</g>
</svg>
