<?xml version="1.0" encoding="utf-8"?>
<!-- Generator: Adobe Illustrator 26.5.0, SVG Export Plug-In . SVG Version: 6.00 Build 0)  -->
<svg version="1.1" id="Layer_1" xmlns="http://www.w3.org/2000/svg" xmlns:xlink="http://www.w3.org/1999/xlink" x="0px" y="0px"
	 viewBox="0 0 387 91.1" style="enable-background:new 0 0 387 91.1;" xml:space="preserve">
<style type="text/css">
	.st0{fill:url(#SVGID_1_);}
	.st1{fill:url(#SVGID_00000166639344700009988980000008944452688042988961_);}
</style>
<g>
	<g>
		<g>
			
				<linearGradient id="SVGID_1_" gradientUnits="userSpaceOnUse" x1="14.893" y1="-681.2599" x2="157.8495" y2="-618.1293" gradientTransform="matrix(1 0 0 -1 0 -604)">
				<stop  offset="0" style="stop-color:#8DC63F"/>
				<stop  offset="0.5" style="stop-color:#15B89B"/>
				<stop  offset="1" style="stop-color:#00AEEF"/>
			</linearGradient>
			<path class="st0" d="M155.1,91.1h-34.4c-6.5,0-12.6-3.1-15.8-8.1l-9.4-14.4c-1.6-2.4-0.9-5.6,1.5-7.2c2.4-1.5,5.6-0.9,7.2,1.5
				l9.4,14.4c1.3,2.1,4.2,3.4,7.2,3.4h34.4c4.3,0,7.9-2.7,7.9-5.9V16.2c0-3.2-3.6-5.9-7.9-5.9h-34.4c-3,0-5.8,1.3-7.2,3.4L68.6,83
				c-3.2,5-9.3,8.1-15.8,8.1H18.3C8.2,91.1,0,83.8,0,74.9V16.2C0,7.3,8.2,0,18.3,0h34.4c6.5,0,12.6,3.1,15.9,8.1L78,22.5
				c1.6,2.4,0.9,5.6-1.5,7.1s-5.6,0.9-7.2-1.5l-9.4-14.4c-1.3-2.1-4.2-3.4-7.2-3.4H18.3c-4.3,0-7.9,2.7-7.9,5.9v58.7
				c0,3.2,3.6,5.9,7.9,5.9h34.4c3,0,5.8-1.3,7.2-3.4l44.9-69.3c3.2-5,9.3-8.1,15.8-8.1H155c10.1,0,18.3,7.3,18.3,16.2v58.7
				C173.4,83.8,165.2,91.1,155.1,91.1z"/>
		</g>
	</g>
	<g>
		<path d="M220.1,23.7v12.4c0,2.3,1.8,4.1,4.1,4.1s4.1-1.8,4.1-4.1v-15c0-6.7-3.6-10.8-9.9-10.8c-4.2,0-6.6,2.2-8.5,4.7v-0.3
			c0-2.3-1.8-4.1-4.1-4.1s-4.1,1.8-4.1,4.1v21.5c0,2.3,1.8,4.1,4.1,4.1s4.1-1.8,4.1-4.1V23.7c0-3.9,2-5.9,5.1-5.9
			S220.1,19.8,220.1,23.7z"/>
		<path d="M249.3,40.6c4.2,0,7.5-1.3,10.1-3.5c0.6-0.5,1.1-1.3,1.1-2.4c0-1.8-1.4-3.2-3.2-3.2c-0.9,0-1.4,0.2-2,0.7
			c-1.7,1.2-3.6,2-5.9,2c-3.7,0-6.3-2-7.1-5.7h16.3c2.2,0,3.8-1.6,3.8-4c0-6-4.3-14-14-14c-8.5,0-14.4,6.8-14.4,15.1v0.1
			C234.1,34.4,240.6,40.6,249.3,40.6z M248.5,16.9c3.5,0,5.6,2.5,6.1,6.2h-12.4C242.8,19.4,245.1,16.9,248.5,16.9z"/>
		<path d="M278.4,40.5c4.2,0,6.6-2.2,8.5-4.7v0.3c0,2.3,1.8,4.1,4.1,4.1s4.1-1.8,4.1-4.1V14.7c0-2.3-1.8-4.1-4.1-4.1
			s-4.1,1.8-4.1,4.1v12.4c0,3.9-2,5.9-5.1,5.9s-5-2-5-5.9V14.7c0-2.3-1.8-4.1-4.1-4.1s-4.1,1.8-4.1,4.1v15
			C268.5,36.3,272.2,40.5,278.4,40.5z"/>
		<path d="M315.8,17.9c2,0,3.5-1.6,3.5-3.5s-1.6-3.5-3.5-3.5h-3.6V7.2c0-2.3-1.8-4.1-4.1-4.1S304,4.9,304,7.2v3.6h-0.3
			c-2,0-3.5,1.6-3.5,3.5s1.6,3.5,3.5,3.5h0.3v13.8c0,6.7,3.4,8.7,8.5,8.7c1.8,0,3.2-0.2,4.7-0.8c1.1-0.4,2.1-1.6,2.1-3.1
			c0-1.9-1.6-3.4-3.4-3.4c-0.2,0-0.7,0-1,0c-1.8,0-2.6-0.9-2.6-2.8V17.9C312.1,17.9,315.8,17.9,315.8,17.9z"/>
		<path d="M338.8,10.6c-2.5,0-4.4,2.6-5.6,5.4v-1.3c0-2.3-1.8-4.1-4.1-4.1s-4.1,1.8-4.1,4.1v21.5c0,2.3,1.8,4.1,4.1,4.1
			s4.1-1.8,4.1-4.1v-7.7c0-5.9,2.3-9,6.5-10c1.7-0.4,3.1-1.7,3.1-3.9C342.9,12.2,341.4,10.6,338.8,10.6z"/>
		<path d="M358.4,10.6c-3.8,0-6.7,0.5-9.3,1.5c-1.3,0.5-2.2,1.7-2.2,3.2c0,1.9,1.5,3.4,3.4,3.4c0.4,0,0.7,0,1.2-0.2
			c1.6-0.5,3.4-0.8,5.7-0.8c4.1,0,6.2,1.9,6.2,5.3v0.5c-2.1-0.7-4.2-1.2-7.1-1.2c-6.9,0-11.7,2.9-11.7,9.3v0.1c0,5.8,4.5,8.9,10,8.9
			c4,0,6.8-1.5,8.8-3.7l0,0c0,1.7,1.6,3.4,4,3.4c2.2,0,4-1.7,4-4V23.1c0-3.9-1-7.1-3.1-9.3C366.1,11.7,362.9,10.6,358.4,10.6z
			 M363.5,29.7c0,3-2.6,5.1-6.4,5.1c-2.6,0-4.5-1.3-4.5-3.5v-0.1c0-2.6,2.2-4,5.7-4c2,0,3.8,0.4,5.2,1.1L363.5,29.7L363.5,29.7z"/>
		<path d="M382.9,0c-2.3,0-4.1,1.8-4.1,4.1v32c0,2.3,1.8,4.1,4.1,4.1s4.1-1.8,4.1-4.1v-32C387,1.9,385.2,0,382.9,0z"/>
		
			<linearGradient id="SVGID_00000168839104410979840970000011716270898934460594_" gradientUnits="userSpaceOnUse" x1="-1965.1943" y1="347.1766" x2="-1856.7943" y2="347.1766" gradientTransform="matrix(-1 0 0 1 -1654.9934 -281.3766)">
			<stop  offset="0" style="stop-color:#8DC63F"/>
			<stop  offset="0.5" style="stop-color:#15B89B"/>
			<stop  offset="1" style="stop-color:#00AEEF"/>
		</linearGradient>
		<path style="fill:url(#SVGID_00000168839104410979840970000011716270898934460594_);" d="M211.2,75.9L211.2,75.9
			c0,2.7-2,4.7-4.7,4.7s-4.7-2-4.7-4.6v-0.1c0-2.6,2-4.6,4.7-4.6S211.2,73.3,211.2,75.9z M243.8,64.7c0,2.4-1.7,3.9-3.8,3.9h-16.3
			c0.8,3.7,3.4,5.7,7.1,5.7c2.3,0,4.2-0.7,5.9-1.9c0.6-0.4,1.1-0.7,2-0.7c1.8,0,3.2,1.4,3.2,3.2c0,1.1-0.5,1.9-1.1,2.4
			c-2.6,2.2-5.9,3.5-10.1,3.5c-8.7,0-15.2-6.1-15.2-15v-0.1c0-8.3,5.9-15.1,14.4-15.1C239.5,50.7,243.8,58.7,243.8,64.7z
			 M235.9,63.5c-0.5-3.7-2.7-6.2-6.1-6.2c-3.4,0-5.6,2.4-6.3,6.2H235.9z M295.1,50.7c-0.3,0-0.6,0-0.9,0l0,0c-2.4,0-4.4,0.6-6.3,1.5
			c-0.1,0.1-0.2,0.1-0.3,0.2c-0.2,0.1-0.5,0.3-0.7,0.4c-0.1,0-0.1,0.1-0.2,0.1c-2.4,1.5-4.4,3.7-6.3,5.9l-1.3,1.6l-4.2,5.4l-0.6,0.8
			l0,0c-1.7,2.2-3.3,4.1-5,5.4c-1.5,1.1-3.1,1.8-5.1,1.8c-4.5,0-7.4-3.6-7.4-8v-0.1c0-4.3,2.9-7.9,7-7.9c2.2,0,3.7,0.7,5.1,1.8
			c0.5,0.4,1.3,0.8,2.4,0.8c2.1,0,3.7-1.6,3.7-3.7c0-1.4-0.8-2.4-1.3-2.8c-2.4-2.1-5.5-3.2-9.9-3.2c-8.9,0-15.2,6.8-15.2,15.1V66
			c0,8.3,6.4,15,15.1,15c0.3,0,0.6,0,0.9,0l0,0c2.4,0,4.4-0.6,6.3-1.5c0.1-0.1,0.2-0.1,0.3-0.2c0.2-0.1,0.5-0.3,0.7-0.4
			c0.1-0.1,0.1-0.1,0.2-0.1c2.4-1.5,4.4-3.7,6.3-5.9l1.3-1.6l4.2-5.4l0.6-0.8l0,0c1.7-2.2,3.3-4.1,5-5.4c1.5-1.1,3.1-1.8,5.1-1.8
			c4.5,0,7.4,3.6,7.4,8V66c0,4.3-2.9,7.9-7,7.9c-2.2,0-3.7-0.7-5.1-1.8c-0.5-0.4-1.3-0.8-2.4-0.8c-2.1,0-3.7,1.6-3.7,3.7
			c0,1.4,0.8,2.4,1.3,2.8c2.4,2.1,5.5,3.2,9.9,3.2c8.9,0,15.2-6.8,15.2-15.1v-0.1C310.2,57.4,303.8,50.7,295.1,50.7z"/>
	</g>
</g>
</svg>
