<?xml version="1.0" encoding="utf-8"?>
<!-- Generator: Adobe Illustrator 27.1.0, SVG Export Plug-In . SVG Version: 6.00 Build 0)  -->
<svg version="1.1" id="Layer_1" xmlns="http://www.w3.org/2000/svg" xmlns:xlink="http://www.w3.org/1999/xlink" x="0px" y="0px"
	 viewBox="0 0 1902.9 1000" style="enable-background:new 0 0 1902.9 1000;" xml:space="preserve">
<style type="text/css">
	.st0{fill:url(#SVGID_1_);}
</style>
<g>
	<g>
		<linearGradient id="SVGID_1_" gradientUnits="userSpaceOnUse" x1="163.4545" y1="847.9908" x2="1732.587" y2="155.0527">
			<stop  offset="0" style="stop-color:#93C01F"/>
			<stop  offset="0.5" style="stop-color:#1DAF95"/>
			<stop  offset="1" style="stop-color:#009EE2"/>
		</linearGradient>
		<path class="st0" d="M1702.2,1000h-378c-71.7,0-138.4-34.1-174-89l-102.7-158.5c-17-26.3-9.5-61.4,16.8-78.5
			c26.3-17,61.4-9.5,78.5,16.8l102.7,158.5c14.7,22.6,45.6,37.3,78.8,37.3h378c47.3,0,87.2-29.5,87.2-64.5V178
			c0-35-40-64.5-87.2-64.5h-378c-33.2,0-64.1,14.6-78.8,37.3L752.7,911c-35.6,54.9-102.3,89-174,89h-378C90,1000,0,920.2,0,822V178
			C0,79.8,90,0,200.7,0h378c71.7,0,138.4,34.1,174,89l102.7,158.5c17,26.3,9.5,61.4-16.8,78.5c-26.3,17-61.4,9.5-78.5-16.8
			L657.5,150.7c-14.7-22.6-45.6-37.3-78.8-37.3h-378c-47.3,0-87.3,29.5-87.3,64.5V822c0,35,40,64.5,87.3,64.5h378
			c33.2,0,64.1-14.6,78.8-37.3L1150.2,89c35.6-54.9,102.3-89,174-89h378c110.7,0,200.7,79.8,200.7,178V822
			C1902.9,920.2,1812.9,1000,1702.2,1000z"/>
	</g>
</g>
</svg>
