<?xml version="1.0" encoding="utf-8"?>
<!-- Generator: Adobe Illustrator 26.5.0, SVG Export Plug-In . SVG Version: 6.00 Build 0)  -->
<svg version="1.1" id="Layer_1" xmlns="http://www.w3.org/2000/svg" xmlns:xlink="http://www.w3.org/1999/xlink" x="0px" y="0px"
	 viewBox="0 0 322.98 91.11" style="enable-background:new 0 0 322.98 91.11;" xml:space="preserve">
<style type="text/css">
	.st0{fill:url(#SVGID_1_);}
	.st1{fill:url(#SVGID_00000031899793651681536380000012510572962605957525_);}
</style>
<g>
	<g>
		<g>
			<linearGradient id="SVGID_1_" gradientUnits="userSpaceOnUse" x1="14.8916" y1="77.2566" x2="157.8481" y2="14.1261">
				<stop  offset="0" style="stop-color:#8DC63F"/>
				<stop  offset="0.5" style="stop-color:#15B89B"/>
				<stop  offset="1" style="stop-color:#00AEEF"/>
			</linearGradient>
			<path class="st0" d="M155.08,91.11h-34.44c-6.53,0-12.61-3.11-15.85-8.11l-9.36-14.44c-1.55-2.4-0.87-5.6,1.53-7.15
				c2.4-1.55,5.6-0.87,7.15,1.53l9.36,14.44c1.34,2.06,4.15,3.4,7.18,3.4h34.44c4.31,0,7.95-2.69,7.95-5.88V16.21
				c0-3.19-3.64-5.88-7.95-5.88h-34.44c-3.02,0-5.84,1.33-7.18,3.4L68.58,82.99c-3.24,5-9.32,8.11-15.85,8.11H18.29
				C8.2,91.11,0,83.83,0,74.89V16.21C0,7.27,8.2,0,18.29,0h34.44c6.53,0,12.61,3.11,15.85,8.11l9.36,14.44
				c1.55,2.4,0.87,5.6-1.53,7.15c-2.4,1.55-5.6,0.87-7.15-1.53L59.9,13.73c-1.34-2.06-4.15-3.4-7.18-3.4H18.29
				c-4.31,0-7.95,2.69-7.95,5.88v58.68c0,3.19,3.64,5.88,7.95,5.88h34.44c3.02,0,5.84-1.33,7.18-3.4l44.89-69.26
				c3.24-5,9.32-8.11,15.85-8.11h34.44c10.08,0,18.28,7.27,18.28,16.21v58.68C173.37,83.83,165.16,91.11,155.08,91.11z"/>
		</g>
	</g>
	<path d="M215.23,34.72v8.01c0,1.47,1.19,2.66,2.66,2.66c1.47,0,2.66-1.19,2.66-2.66v-9.69c0-4.3-2.34-6.96-6.37-6.96
		c-2.69,0-4.27,1.43-5.49,3.01v-0.21c0-1.47-1.19-2.66-2.66-2.66c-1.47,0-2.66,1.19-2.66,2.66v13.86c0,1.47,1.19,2.66,2.66,2.66
		c1.47,0,2.66-1.19,2.66-2.66v-8.01c0-2.52,1.29-3.81,3.32-3.81S215.23,32.2,215.23,34.72z"/>
	<path d="M234.06,45.61c2.73,0,4.86-0.87,6.51-2.27c0.38-0.35,0.7-0.87,0.7-1.57c0-1.19-0.88-2.1-2.06-2.1
		c-0.56,0-0.91,0.14-1.29,0.42c-1.08,0.8-2.31,1.26-3.78,1.26c-2.38,0-4.06-1.26-4.58-3.67h10.53c1.4,0,2.48-1.02,2.48-2.55
		c0-3.88-2.76-9.03-9.03-9.03c-5.46,0-9.27,4.41-9.27,9.76v0.07C224.26,41.65,228.42,45.61,234.06,45.61z M233.53,30.35
		c2.24,0,3.64,1.61,3.95,3.99h-8.01C229.89,31.92,231.33,30.35,233.53,30.35z"/>
	<path d="M252.85,45.54c2.69,0,4.27-1.43,5.49-3.01v0.21c0,1.47,1.19,2.66,2.66,2.66s2.66-1.19,2.66-2.66V28.88
		c0-1.47-1.19-2.66-2.66-2.66s-2.66,1.19-2.66,2.66v8.01c0,2.52-1.29,3.81-3.32,3.81c-2.03,0-3.22-1.29-3.22-3.81v-8.01
		c0-1.47-1.19-2.66-2.66-2.66c-1.47,0-2.66,1.19-2.66,2.66v9.69C246.48,42.88,248.83,45.54,252.85,45.54z"/>
	<path d="M276.96,30.98c1.26,0,2.27-1.02,2.27-2.27c0-1.26-1.02-2.27-2.27-2.27h-2.34v-2.35c0-1.47-1.19-2.66-2.66-2.66
		c-1.47,0-2.66,1.19-2.66,2.66v2.35h-0.17c-1.26,0-2.28,1.01-2.28,2.27c0,1.26,1.02,2.27,2.28,2.27h0.17v8.89
		c0,4.34,2.2,5.63,5.46,5.63c1.15,0,2.06-0.14,3.04-0.53c0.73-0.28,1.36-1.05,1.36-1.99c0-1.22-1.01-2.2-2.2-2.2
		c-0.11,0-0.46,0.03-0.63,0.03c-1.19,0-1.71-0.59-1.71-1.82v-8.01H276.96z"/>
	<path d="M291.87,26.22c-1.58,0-2.84,1.68-3.6,3.5v-0.84c0-1.47-1.19-2.66-2.66-2.66c-1.47,0-2.66,1.19-2.66,2.66v13.86
		c0,1.47,1.19,2.66,2.66,2.66c1.47,0,2.66-1.19,2.66-2.66v-4.97c0-3.78,1.5-5.84,4.2-6.47c1.08-0.25,1.99-1.08,1.99-2.49
		C294.46,27.3,293.51,26.22,291.87,26.22z"/>
	<path d="M304.47,26.22c-2.48,0-4.3,0.35-5.98,0.98c-0.84,0.32-1.43,1.12-1.43,2.06c0,1.23,0.98,2.17,2.2,2.17
		c0.25,0,0.46-0.03,0.77-0.14c1.01-0.32,2.2-0.53,3.67-0.53c2.66,0,4.02,1.23,4.02,3.43v0.31c-1.33-0.45-2.69-0.77-4.58-0.77
		c-4.44,0-7.56,1.89-7.56,5.98v0.07c0,3.71,2.9,5.74,6.44,5.74c2.59,0,4.37-0.95,5.67-2.38v0.03c0,1.12,1.01,2.2,2.55,2.2
		c1.44,0,2.59-1.12,2.59-2.55V34.3c0-2.52-0.63-4.58-2.03-5.98C309.47,26.99,307.37,26.22,304.47,26.22z M307.79,38.57
		c0,1.92-1.68,3.29-4.16,3.29c-1.71,0-2.9-0.84-2.9-2.27v-0.07c0-1.68,1.4-2.59,3.67-2.59c1.29,0,2.48,0.28,3.39,0.7V38.57z"/>
	<path d="M320.32,19.43c-1.47,0-2.66,1.19-2.66,2.66v20.65c0,1.47,1.19,2.66,2.66,2.66s2.66-1.19,2.66-2.66V22.09
		C322.98,20.62,321.79,19.43,320.32,19.43z"/>
	
		<linearGradient id="SVGID_00000043419683512148936530000010357890505329685146_" gradientUnits="userSpaceOnUse" x1="111.6125" y1="1434.7125" x2="181.6394" y2="1434.7125" gradientTransform="matrix(-1 0 0 -1 385.0066 1496.6234)">
		<stop  offset="0" style="stop-color:#8DC63F"/>
		<stop  offset="0.5" style="stop-color:#15B89B"/>
		<stop  offset="1" style="stop-color:#00AEEF"/>
	</linearGradient>
	<path style="fill:url(#SVGID_00000043419683512148936530000010357890505329685146_);" d="M209.46,68.42v0.07
		c0,1.68-1.3,2.97-3.04,2.97c-1.75,0-3.05-1.3-3.05-2.97v-0.07c0-1.68,1.3-2.97,3.05-2.97C208.16,65.45,209.46,66.74,209.46,68.42z
		 M230.49,61.18c0,1.54-1.08,2.55-2.48,2.55h-10.53c0.53,2.41,2.2,3.67,4.59,3.67c1.47,0,2.69-0.46,3.78-1.26
		c0.38-0.28,0.73-0.42,1.29-0.42c1.19,0,2.07,0.91,2.07,2.1c0,0.7-0.32,1.22-0.7,1.57c-1.65,1.4-3.78,2.27-6.51,2.27
		c-5.63,0-9.8-3.95-9.8-9.69v-0.07c0-5.35,3.81-9.76,9.27-9.76C227.73,52.15,230.49,57.29,230.49,61.18z M225.42,60.41
		c-0.32-2.38-1.72-3.99-3.95-3.99c-2.2,0-3.64,1.57-4.06,3.99H225.42z M263.63,52.15c-0.2,0-0.38,0.02-0.57,0.02v0
		c-1.53,0-2.86,0.37-4.04,0.98c-0.07,0.04-0.14,0.08-0.21,0.11c-0.16,0.09-0.32,0.18-0.48,0.28c-0.04,0.03-0.09,0.05-0.13,0.08
		c-1.55,0.98-2.85,2.36-4.04,3.8l-0.84,1.03l-2.72,3.47l-0.4,0.52h0c-1.11,1.42-2.14,2.66-3.23,3.5c-0.96,0.72-2,1.16-3.32,1.16
		c-2.9,0-4.76-2.31-4.76-5.18v-0.07c0-2.77,1.89-5.11,4.55-5.11c1.4,0,2.38,0.45,3.32,1.19c0.32,0.25,0.84,0.53,1.54,0.53
		c1.33,0,2.41-1.05,2.41-2.38c0-0.91-0.49-1.54-0.84-1.82c-1.57-1.33-3.57-2.1-6.4-2.1c-5.74,0-9.83,4.41-9.83,9.76v0.07
		c0,5.35,4.13,9.69,9.76,9.69c0.2,0,0.38-0.02,0.57-0.02v0c1.53,0,2.86-0.37,4.04-0.98c0.07-0.04,0.14-0.08,0.21-0.11
		c0.16-0.09,0.32-0.18,0.48-0.28c0.04-0.03,0.09-0.05,0.13-0.08c1.55-0.98,2.85-2.36,4.04-3.8l0.84-1.03l2.72-3.47l0.4-0.52h0
		c1.11-1.42,2.14-2.66,3.23-3.5c0.96-0.72,2-1.16,3.32-1.16c2.9,0,4.76,2.31,4.76,5.18v0.07c0,2.77-1.89,5.11-4.55,5.11
		c-1.4,0-2.38-0.45-3.32-1.19c-0.32-0.25-0.84-0.53-1.54-0.53c-1.33,0-2.41,1.05-2.41,2.38c0,0.91,0.49,1.54,0.84,1.82
		c1.57,1.33,3.57,2.1,6.4,2.1c5.74,0,9.83-4.41,9.83-9.76v-0.07C273.39,56.49,269.26,52.15,263.63,52.15z"/>
</g>
</svg>
