<?xml version="1.0" encoding="utf-8"?>
<!-- Generator: Adobe Illustrator 26.5.0, SVG Export Plug-In . SVG Version: 6.00 Build 0)  -->
<svg version="1.1" id="Layer_1" xmlns="http://www.w3.org/2000/svg" xmlns:xlink="http://www.w3.org/1999/xlink" x="0px" y="0px"
	 viewBox="0 0 378.62 91.11" style="enable-background:new 0 0 378.62 91.11;" xml:space="preserve">
<style type="text/css">
	.st0{fill:url(#SVGID_1_);}
	.st1{fill:url(#SVGID_00000153694829343215394170000010348721365029953954_);}
</style>
<g>
	<g>
		<g>
			
				<linearGradient id="SVGID_1_" gradientUnits="userSpaceOnUse" x1="14.8919" y1="16.7427" x2="157.8484" y2="79.8732" gradientTransform="matrix(1 0 0 -1 0 94)">
				<stop  offset="0" style="stop-color:#8DC63F"/>
				<stop  offset="0.5" style="stop-color:#15B89B"/>
				<stop  offset="1" style="stop-color:#00AEEF"/>
			</linearGradient>
			<path class="st0" d="M155.08,91.11h-34.44c-6.53,0-12.61-3.11-15.85-8.11l-9.36-14.44c-1.55-2.4-0.87-5.6,1.53-7.15
				c2.4-1.55,5.6-0.87,7.15,1.53l9.36,14.44c1.34,2.06,4.15,3.4,7.18,3.4h34.44c4.31,0,7.95-2.69,7.95-5.88V16.21
				c0-3.19-3.64-5.88-7.95-5.88h-34.44c-3.02,0-5.84,1.33-7.18,3.4L68.58,82.99c-3.24,5-9.32,8.11-15.85,8.11H18.29
				C8.2,91.11,0,83.83,0,74.89V16.21C0,7.27,8.2,0,18.29,0h34.44c6.53,0,12.61,3.11,15.85,8.11l9.36,14.44
				c1.55,2.4,0.87,5.6-1.53,7.15s-5.6,0.87-7.15-1.53L59.9,13.73c-1.34-2.06-4.15-3.4-7.18-3.4H18.29c-4.31,0-7.95,2.69-7.95,5.88
				v58.68c0,3.19,3.64,5.88,7.95,5.88h34.44c3.02,0,5.84-1.33,7.18-3.4L104.8,8.11c3.24-5,9.32-8.11,15.85-8.11h34.44
				c10.08,0,18.28,7.27,18.28,16.21v58.68C173.37,83.83,165.16,91.11,155.08,91.11z"/>
		</g>
	</g>
	<g>
		<path d="M211.74,23.71v12.41c0,2.28,1.84,4.12,4.12,4.12c2.28,0,4.12-1.84,4.12-4.12V21.11c0-6.66-3.62-10.78-9.87-10.78
			c-4.17,0-6.61,2.21-8.5,4.66v-0.33c0-2.28-1.84-4.12-4.12-4.12c-2.28,0-4.12,1.84-4.12,4.12v21.47c0,2.28,1.84,4.12,4.12,4.12
			c2.28,0,4.12-1.84,4.12-4.12V23.73c0-3.9,2-5.9,5.14-5.9S211.74,19.81,211.74,23.71z"/>
		<path d="M240.9,40.58c4.23,0,7.53-1.35,10.08-3.52c0.59-0.54,1.08-1.35,1.08-2.43c0-1.84-1.36-3.25-3.19-3.25
			c-0.87,0-1.41,0.22-2,0.65c-1.67,1.24-3.58,1.95-5.85,1.95c-3.69,0-6.29-1.95-7.09-5.68h16.31c2.17,0,3.84-1.58,3.84-3.95
			c0-6.01-4.27-13.99-13.99-13.99c-8.46,0-14.36,6.83-14.36,15.12v0.11C225.72,34.44,232.17,40.58,240.9,40.58z M240.08,16.94
			c3.47,0,5.64,2.49,6.12,6.18h-12.41C234.44,19.37,236.67,16.94,240.08,16.94z"/>
		<path d="M270,40.47c4.17,0,6.61-2.21,8.5-4.66v0.33c0,2.28,1.84,4.12,4.12,4.12s4.12-1.84,4.12-4.12V14.67
			c0-2.28-1.84-4.12-4.12-4.12s-4.12,1.84-4.12,4.12v12.41c0,3.9-2,5.9-5.14,5.9c-3.14,0-4.99-2-4.99-5.9V14.67
			c0-2.28-1.84-4.12-4.12-4.12s-4.12,1.84-4.12,4.12v15.01C260.14,36.35,263.78,40.47,270,40.47z"/>
		<path d="M307.35,17.92c1.95,0,3.52-1.58,3.52-3.52c0-1.95-1.58-3.52-3.52-3.52h-3.62V7.25c0-2.28-1.84-4.12-4.12-4.12
			c-2.28,0-4.12,1.84-4.12,4.12v3.64h-0.26c-1.95,0-3.53,1.56-3.53,3.52s1.58,3.52,3.53,3.52h0.26v13.77c0,6.72,3.41,8.72,8.46,8.72
			c1.78,0,3.19-0.22,4.71-0.82c1.13-0.43,2.11-1.63,2.11-3.08c0-1.89-1.56-3.41-3.41-3.41c-0.17,0-0.71,0.05-0.98,0.05
			c-1.84,0-2.65-0.91-2.65-2.82V17.92C303.72,17.92,307.35,17.92,307.35,17.92z"/>
		<path d="M330.44,10.55c-2.45,0-4.4,2.6-5.58,5.42v-1.3c0-2.28-1.84-4.12-4.12-4.12s-4.12,1.84-4.12,4.12v21.47
			c0,2.28,1.84,4.12,4.12,4.12s4.12-1.84,4.12-4.12v-7.7c0-5.85,2.32-9.04,6.51-10.02c1.67-0.39,3.08-1.67,3.08-3.86
			C334.45,12.22,332.98,10.55,330.44,10.55z"/>
		<path d="M349.95,10.55c-3.84,0-6.66,0.54-9.26,1.52c-1.3,0.5-2.21,1.73-2.21,3.19c0,1.91,1.52,3.36,3.41,3.36
			c0.39,0,0.71-0.05,1.19-0.22c1.56-0.5,3.41-0.82,5.68-0.82c4.12,0,6.23,1.91,6.23,5.31v0.48c-2.06-0.7-4.17-1.19-7.09-1.19
			c-6.88,0-11.71,2.93-11.71,9.26v0.11c0,5.75,4.49,8.89,9.97,8.89c4.01,0,6.77-1.47,8.78-3.69v0.05c0,1.73,1.56,3.41,3.95,3.41
			c2.23,0,4.01-1.73,4.01-3.95v-13.2c0-3.9-0.98-7.09-3.14-9.26C357.7,11.74,354.45,10.55,349.95,10.55z M355.1,29.67
			c0,2.97-2.6,5.1-6.44,5.1c-2.65,0-4.49-1.3-4.49-3.52v-0.11c0-2.6,2.17-4.01,5.68-4.01c2,0,3.84,0.43,5.25,1.08L355.1,29.67
			L355.1,29.67z"/>
		<path d="M374.5,0.03c-2.28,0-4.12,1.84-4.12,4.12v31.98c0,2.28,1.84,4.12,4.12,4.12c2.28,0,4.12-1.84,4.12-4.12V4.15
			C378.62,1.87,376.78,0.03,374.5,0.03z"/>
		
			<linearGradient id="SVGID_00000141437034936400782510000012354785382514549677_" gradientUnits="userSpaceOnUse" x1="-1512.8104" y1="-350.8" x2="-1404.3634" y2="-350.8" gradientTransform="matrix(-1 0 0 1 -1210.9934 416.6234)">
			<stop  offset="0" style="stop-color:#8DC63F"/>
			<stop  offset="0.5" style="stop-color:#15B89B"/>
			<stop  offset="1" style="stop-color:#00AEEF"/>
		</linearGradient>
		<path style="fill:url(#SVGID_00000141437034936400782510000012354785382514549677_);" d="M202.8,75.91v0.11
			c0,2.6-2.01,4.6-4.71,4.6c-2.71,0-4.72-2.01-4.72-4.6v-0.11c0-2.6,2.01-4.6,4.72-4.6C200.79,71.31,202.8,73.3,202.8,75.91z
			 M235.37,64.69c0,2.39-1.67,3.95-3.84,3.95h-16.31c0.82,3.73,3.41,5.68,7.11,5.68c2.28,0,4.17-0.71,5.85-1.95
			c0.59-0.43,1.13-0.65,2-0.65c1.84,0,3.21,1.41,3.21,3.25c0,1.08-0.5,1.89-1.08,2.43c-2.56,2.17-5.85,3.52-10.08,3.52
			c-8.72,0-15.18-6.12-15.18-15.01v-0.11c0-8.29,5.9-15.12,14.36-15.12C231.1,50.71,235.37,58.67,235.37,64.69z M227.52,63.5
			c-0.5-3.69-2.66-6.18-6.12-6.18c-3.41,0-5.64,2.43-6.29,6.18H227.52z M286.7,50.71c-0.31,0-0.59,0.03-0.88,0.03l0,0
			c-2.37,0-4.43,0.57-6.26,1.52c-0.11,0.06-0.22,0.12-0.33,0.17c-0.25,0.14-0.5,0.28-0.74,0.43c-0.06,0.05-0.14,0.08-0.2,0.12
			c-2.4,1.52-4.41,3.66-6.26,5.89l-1.3,1.6l-4.21,5.37l-0.62,0.81l0,0c-1.72,2.2-3.31,4.12-5,5.42c-1.49,1.12-3.1,1.8-5.14,1.8
			c-4.49,0-7.37-3.58-7.37-8.02v-0.11c0-4.29,2.93-7.91,7.05-7.91c2.17,0,3.69,0.7,5.14,1.84c0.5,0.39,1.3,0.82,2.39,0.82
			c2.06,0,3.73-1.63,3.73-3.69c0-1.41-0.76-2.39-1.3-2.82c-2.43-2.06-5.53-3.25-9.91-3.25c-8.89,0-15.22,6.83-15.22,15.12v0.11
			c0,8.29,6.4,15.01,15.12,15.01c0.31,0,0.59-0.03,0.88-0.03l0,0c2.37,0,4.43-0.57,6.26-1.52c0.11-0.06,0.22-0.12,0.33-0.17
			c0.25-0.14,0.5-0.28,0.74-0.43c0.06-0.05,0.14-0.08,0.2-0.12c2.4-1.52,4.41-3.66,6.26-5.89l1.3-1.6l4.21-5.37l0.62-0.81l0,0
			c1.72-2.2,3.31-4.12,5-5.42c1.49-1.12,3.1-1.8,5.14-1.8c4.49,0,7.37,3.58,7.37,8.02v0.11c0,4.29-2.93,7.91-7.05,7.91
			c-2.17,0-3.69-0.7-5.14-1.84c-0.5-0.39-1.3-0.82-2.39-0.82c-2.06,0-3.73,1.63-3.73,3.69c0,1.41,0.76,2.39,1.3,2.82
			c2.43,2.06,5.53,3.25,9.91,3.25c8.89,0,15.22-6.83,15.22-15.12v-0.11C301.82,57.43,295.42,50.71,286.7,50.71z"/>
	</g>
</g>
</svg>
